<?xml version="1.0" standalone="no"?>
<!DOCTYPE svg PUBLIC "-//W3C//DTD SVG 20010904//EN"
 "http://www.w3.org/TR/2001/REC-SVG-20010904/DTD/svg10.dtd">
<svg version="1.0" xmlns="http://www.w3.org/2000/svg"
 width="900.000000pt" height="900.000000pt" viewBox="0 0 900.000000 900.000000"
 preserveAspectRatio="xMidYMid meet">
<metadata>
Created by potrace 1.16, written by Peter Selinger 2001-2019
</metadata>
<g transform="translate(0.000000,900.000000) scale(0.100000,-0.100000)"
fill="#000000" stroke="none">
<path d="M0 4500 l0 -4500 4500 0 4500 0 0 4500 0 4500 -4500 0 -4500 0 0
-4500z m5518 3258 c51 -53 73 -83 78 -108 4 -19 13 -38 19 -42 10 -6 8 -25 -6
-85 -9 -43 -16 -79 -15 -80 1 -2 22 18 46 42 45 46 80 58 80 29 0 -10 5 -14
15 -10 8 3 21 8 28 11 7 3 31 -10 54 -30 37 -32 47 -35 103 -35 60 0 63 -1
121 -52 33 -29 61 -53 63 -53 2 0 57 49 122 109 102 94 119 103 33 17 -14 -14
-49 -54 -78 -88 l-53 -63 51 -59 c28 -32 57 -64 66 -71 8 -7 12 -17 8 -24 -4
-6 -8 -22 -9 -36 -1 -14 -5 -34 -8 -45 -6 -16 12 -40 93 -120 54 -55 97 -103
95 -107 -3 -5 1 -8 8 -8 7 0 25 -11 40 -25 15 -14 31 -25 36 -25 4 0 19 -10
32 -22 54 -50 256 -149 374 -183 49 -14 126 -28 172 -31 l83 -7 -15 -26 c-24
-43 -38 -62 -72 -96 -20 -21 -30 -39 -26 -49 6 -16 -63 -136 -78 -136 -5 0 -8
-6 -8 -13 0 -11 -75 -111 -217 -292 -95 -120 -254 -305 -263 -305 -5 0 -16 13
-25 30 -14 26 -42 50 -61 50 -11 0 3 -105 17 -128 11 -18 6 -27 -50 -90 -71
-79 -304 -302 -358 -341 -19 -15 -53 -45 -76 -68 -22 -24 -44 -43 -48 -43 -5
0 -7 164 -6 363 l2 364 32 37 c71 80 107 191 94 289 -15 105 -33 181 -49 200
-8 9 -11 17 -6 17 5 0 -1 7 -13 15 -13 9 -27 32 -32 53 -24 89 -96 130 -194
112 -63 -12 -54 -7 -211 -139 -85 -73 -198 -184 -309 -305 -215 -235 -284
-306 -296 -306 -5 0 -31 -27 -57 -61 l-48 -60 -18 33 -17 33 -1 -32 c0 -57
-16 -80 -72 -106 -50 -24 -100 -68 -96 -85 9 -30 -151 -191 -190 -192 -18 0
-22 -4 -18 -18 5 -15 -36 -58 -179 -193 -101 -96 -192 -175 -200 -177 -8 -2
-15 -10 -15 -17 0 -17 -250 -255 -267 -255 -7 0 -13 -7 -13 -15 0 -8 -6 -12
-15 -9 -9 4 -16 -3 -21 -20 -3 -14 -44 -61 -93 -105 -91 -84 -180 -174 -277
-279 -32 -35 -90 -88 -129 -117 -64 -49 -144 -127 -330 -326 -38 -41 -90 -93
-115 -115 -25 -22 -53 -52 -63 -67 -10 -15 -35 -38 -57 -52 -21 -13 -72 -67
-113 -118 -43 -54 -94 -106 -121 -123 -25 -16 -46 -34 -46 -41 0 -7 -20 -26
-44 -42 -24 -17 -57 -52 -74 -78 -33 -50 -135 -147 -191 -181 -18 -11 -41 -31
-50 -45 -34 -54 -97 -126 -108 -127 -6 0 -57 -49 -113 -110 -57 -60 -110 -110
-119 -111 -11 0 -12 -2 -3 -6 10 -4 10 -8 1 -19 -6 -8 -16 -14 -21 -14 -10 0
-53 -38 -53 -48 0 -4 -5 -15 -11 -26 -9 -14 -17 -16 -35 -10 -13 4 -30 7 -38
5 -8 -1 -18 3 -22 11 -7 10 -9 9 -9 -4 0 -10 -6 -18 -14 -18 -9 0 -12 7 -9 20
4 16 0 20 -20 20 -29 0 -46 39 -22 53 11 6 13 13 5 26 -12 23 -50 35 -50 16 0
-7 -7 -16 -15 -19 -12 -4 -14 -10 -5 -25 16 -30 13 -46 -5 -31 -8 7 -21 10
-30 7 -8 -4 -17 -2 -20 3 -4 6 -2 10 3 10 5 0 12 9 15 21 3 12 10 18 16 15 6
-4 13 4 17 18 3 13 14 26 25 29 10 3 19 10 19 17 0 6 -5 8 -10 5 -6 -3 -10 -1
-10 4 0 23 31 5 36 -21 1 -5 2 -11 3 -14 0 -4 7 -2 14 3 16 13 52 2 52 -16 0
-8 6 -16 14 -19 9 -3 11 0 7 7 -4 7 -2 19 5 27 10 13 10 17 0 24 -15 9 -7 28
21 48 24 18 23 27 -7 40 -33 15 -32 16 -38 -8 -3 -11 -11 -20 -17 -20 -10 0
-10 4 0 15 17 20 5 32 -15 15 -10 -8 -15 -9 -15 -1 0 6 6 12 13 13 6 0 17 2
22 3 6 2 14 3 20 4 5 0 0 8 -12 16 -14 10 -19 22 -16 35 3 12 0 20 -6 20 -7 0
-9 5 -6 10 3 6 0 10 -8 10 -19 0 -10 39 10 47 9 3 11 13 7 26 -5 16 -3 19 10
14 11 -4 16 -1 16 9 0 11 -6 15 -19 11 -17 -4 -16 0 7 34 15 21 32 37 37 35
18 -6 47 15 41 30 -3 8 3 23 12 32 10 10 22 26 25 36 4 10 12 14 18 10 7 -4 9
-3 6 3 -9 14 102 130 128 135 13 2 20 11 20 28 0 16 9 29 24 37 14 6 28 19 33
28 6 10 16 14 29 10 11 -4 19 -2 19 4 0 6 -4 11 -10 11 -23 0 -7 18 21 24 26
5 58 31 104 86 6 6 42 33 80 59 48 32 89 72 131 127 71 91 466 467 496 472 11
2 23 12 25 23 6 22 6 22 56 8 32 -9 43 -7 67 8 l29 18 -19 42 -19 42 110 99
c60 55 123 120 140 146 18 26 56 68 86 94 30 26 75 68 100 95 28 28 55 47 68
47 14 0 40 20 72 58 67 77 205 216 225 228 17 10 457 433 542 522 38 40 52 62
54 89 3 33 -2 42 -83 123 -50 50 -85 93 -81 99 4 6 -4 15 -19 21 -14 5 -28 18
-32 27 -4 10 -13 23 -22 29 -8 7 -12 18 -7 29 5 14 4 16 -8 6 -11 -9 -30 7
-102 86 -49 54 -93 101 -97 104 -5 3 -7 17 -5 30 2 19 -2 25 -22 27 -14 2 -41
19 -60 37 -19 18 -102 90 -185 160 -82 70 -154 134 -158 141 -17 30 -52 14
-117 -55 -36 -38 -71 -78 -79 -89 -8 -12 -20 -18 -29 -14 -10 3 -13 1 -8 -6 4
-6 -7 -43 -23 -81 -41 -92 -54 -158 -49 -249 4 -92 36 -170 90 -221 l36 -34 1
-218 c0 -158 -3 -219 -12 -219 -8 0 -8 -3 1 -12 13 -13 18 -288 4 -288 -9 0
-105 83 -235 204 -85 79 -225 224 -412 427 -62 68 -264 320 -331 413 -27 38
-61 83 -75 100 -52 63 -219 333 -219 354 0 5 27 9 60 10 79 1 214 35 323 82
l88 38 55 -25 c30 -13 62 -23 71 -21 14 3 10 11 -20 45 l-38 42 35 23 c62 43
255 203 255 213 1 5 24 33 53 62 l52 53 -19 52 -18 52 34 30 c19 17 49 50 67
73 l33 43 -32 39 c-17 22 -65 75 -105 117 -113 120 -77 102 49 -24 l112 -112
62 55 c60 54 62 55 123 55 57 0 65 3 110 41 46 38 51 41 92 34 31 -5 54 -18
84 -47 l41 -40 -20 102 -20 101 69 70 c54 54 80 73 118 84 49 15 65 10 66 -17
0 -5 10 -8 23 -8 28 0 47 -18 40 -36 -3 -9 0 -12 9 -9 8 3 74 -55 172 -154
154 -157 157 -161 142 -183 -9 -12 -16 -29 -16 -38 0 -9 -30 -45 -67 -82 -59
-57 -73 -66 -107 -67 -21 0 -46 -3 -55 -6 -10 -3 -39 -1 -67 4 -27 5 -50 9
-51 8 -1 -1 21 -26 48 -56 27 -29 49 -63 49 -75 0 -12 -22 -48 -50 -81 -27
-33 -50 -65 -50 -72 0 -11 49 -76 89 -118 10 -11 28 -34 38 -52 11 -18 31 -42
46 -53 15 -12 27 -27 27 -35 0 -7 7 -16 15 -19 9 -3 15 -13 13 -21 -2 -8 8
-21 22 -28 23 -12 172 -175 334 -367 39 -47 94 -109 121 -138 28 -30 54 -61
58 -69 5 -8 29 -28 54 -43 42 -27 48 -28 72 -15 15 7 62 55 106 105 58 67 81
87 88 78 6 -9 7 -8 3 4 -3 11 7 31 28 55 19 21 118 135 220 253 103 118 195
218 205 221 10 4 25 22 34 41 9 18 44 67 78 108 38 45 64 85 65 101 1 15 5 36
9 49 6 20 4 21 -24 18 -25 -2 -35 3 -56 32 -14 18 -25 42 -25 52 0 28 65 88
96 88 35 0 27 20 -16 42 -33 17 -35 17 -42 -1 -4 -13 -21 -21 -53 -26 -26 -3
-53 -9 -59 -11 -15 -6 -216 192 -216 212 0 9 88 105 196 214 108 108 200 203
204 210 4 7 13 9 19 6 6 -4 11 -2 11 3 0 6 10 11 23 11 15 0 47 -25 95 -72z
m-503 -2370 c47 -44 95 -96 107 -115 13 -18 26 -33 30 -33 11 0 46 -30 77 -64
14 -16 36 -38 48 -49 12 -11 19 -26 16 -33 -3 -9 8 -19 31 -29 23 -10 126
-103 269 -243 128 -125 296 -285 374 -355 77 -70 144 -134 147 -142 3 -8 12
-15 20 -15 8 0 18 -9 21 -20 3 -11 12 -20 19 -20 7 0 53 -39 102 -86 49 -47
99 -93 112 -101 12 -8 22 -22 22 -29 0 -8 5 -14 10 -14 6 0 15 -11 20 -25 6
-15 25 -32 44 -40 39 -17 52 -31 34 -38 -7 -3 -3 -6 10 -6 24 -1 102 -75 102
-98 0 -15 16 -18 22 -4 2 5 23 -11 48 -36 35 -35 40 -44 24 -42 -11 2 -20 0
-20 -6 1 -5 5 -9 9 -7 13 4 89 -42 131 -78 121 -107 161 -146 162 -160 1 -9 7
-27 15 -40 l14 -25 3 23 4 24 24 -23 c13 -12 24 -28 24 -35 0 -7 10 -14 23
-16 14 -2 22 -10 22 -23 0 -12 7 -20 16 -20 9 0 51 -32 94 -72 43 -39 95 -79
116 -89 21 -11 39 -23 39 -27 0 -5 12 -24 26 -43 23 -29 24 -33 8 -28 -15 5
-16 4 -4 -4 8 -6 17 -9 21 -6 4 2 19 -11 34 -28 16 -18 65 -73 110 -123 113
-123 133 -148 128 -162 -3 -7 2 -13 10 -13 8 0 25 -9 38 -21 13 -11 17 -18 9
-14 -8 4 -4 -2 9 -13 23 -19 23 -20 5 -25 -14 -3 -12 -5 8 -6 20 -1 32 -9 43
-31 8 -16 42 -56 75 -89 43 -43 58 -65 53 -77 -5 -13 -3 -16 10 -11 13 5 16
-2 19 -31 2 -20 8 -36 14 -35 14 3 10 -40 -4 -45 -17 -5 -4 -22 17 -22 14 0
17 6 13 27 -5 25 -3 27 11 14 11 -8 15 -21 11 -36 -4 -17 -1 -25 15 -30 31 -9
63 -59 48 -74 -8 -8 -6 -15 10 -26 17 -12 21 -23 17 -51 -4 -31 -2 -35 10 -25
12 10 18 2 36 -46 12 -32 24 -74 27 -93 3 -19 12 -48 20 -64 8 -15 12 -39 9
-51 -3 -13 -2 -26 3 -30 5 -3 12 3 14 12 4 14 5 12 6 -5 0 -12 10 -41 22 -63
11 -22 19 -48 17 -57 -2 -9 2 -22 10 -27 11 -9 11 -16 1 -38 -11 -24 -13 -25
-24 -10 -15 20 -30 11 -51 -29 -9 -18 -11 -27 -4 -23 7 4 16 1 21 -6 4 -7 11
-10 15 -6 4 3 2 13 -4 20 -9 10 -8 18 3 33 13 17 14 18 16 2 1 -10 3 -22 4
-28 1 -5 3 -17 4 -27 1 -15 3 -14 21 2 19 18 20 17 20 -5 0 -13 -8 -32 -17
-42 -14 -16 -15 -22 -4 -40 7 -11 9 -23 6 -26 -9 -9 -115 105 -115 123 0 8 -5
15 -11 15 -5 0 -7 -5 -3 -12 4 -7 3 -8 -5 -4 -6 4 -20 24 -30 44 -20 39 -164
192 -180 192 -9 0 -102 94 -242 244 -35 38 -86 92 -112 120 -74 78 -104 127
-112 181 -4 28 -12 61 -17 74 -8 21 -10 22 -26 9 -44 -39 -57 -32 -160 84 -53
60 -96 117 -94 125 2 10 -2 14 -11 10 -9 -3 -82 70 -212 214 -109 121 -217
233 -240 249 -24 16 -79 72 -123 124 -45 51 -108 118 -141 147 -34 29 -61 59
-61 66 0 7 -7 13 -15 13 -8 0 -14 5 -13 11 2 6 -9 19 -24 28 -14 9 -68 54
-120 101 -51 47 -126 112 -167 145 -41 33 -101 91 -135 129 -119 136 -151 169
-181 187 -16 10 -115 103 -220 207 -104 104 -218 210 -252 236 -35 26 -63 51
-63 56 0 13 -39 48 -85 77 -52 33 -132 110 -205 198 -50 61 -151 164 -271 276
-65 61 -62 71 54 186 95 95 115 107 170 112 10 0 54 -34 102 -81z m-491 -471
c14 -24 37 -54 51 -67 14 -13 25 -30 25 -37 0 -8 4 -12 8 -9 5 3 41 -28 81
-69 40 -41 69 -75 64 -75 -4 0 9 -12 30 -27 21 -15 36 -32 33 -40 -3 -8 2 -13
12 -13 19 0 92 -71 92 -89 0 -6 12 -16 26 -21 14 -6 22 -14 19 -20 -3 -5 0
-10 7 -10 7 0 21 -14 30 -30 9 -17 23 -30 30 -30 20 0 124 -112 149 -159 20
-39 54 -68 73 -63 4 2 44 -34 88 -78 89 -92 89 -86 2 -146 -30 -21 -73 -55
-96 -76 -22 -21 -49 -40 -59 -43 -10 -4 -73 -60 -139 -127 -79 -79 -125 -118
-135 -114 -8 3 -15 1 -15 -5 0 -6 -5 -7 -10 -4 -6 4 -13 -7 -16 -24 -4 -21
-35 -58 -97 -118 -50 -48 -96 -88 -102 -88 -5 0 -11 -10 -13 -23 -2 -12 -12
-27 -23 -32 -10 -6 -19 -15 -19 -21 0 -6 -11 -25 -24 -42 -36 -47 -46 -103
-53 -287 -3 -91 -9 -170 -14 -175 -4 -6 -1 -31 7 -55 10 -27 16 -85 17 -145 2
-100 -9 -251 -19 -266 -3 -5 4 -39 15 -76 22 -76 19 -117 -12 -138 -12 -8 -17
-15 -12 -15 6 0 10 -23 10 -51 0 -37 -5 -54 -18 -64 -10 -7 -13 -15 -7 -17 16
-5 13 -99 -5 -128 -4 -6 -7 -94 -7 -195 0 -101 -3 -207 -8 -237 l-8 -53 -2 55
c-1 30 -4 123 -6 207 -2 84 -6 158 -8 165 -3 7 -7 48 -11 90 -3 43 -11 92 -17
110 -9 24 -8 33 1 36 9 3 9 7 0 18 -9 11 -6 16 15 24 35 13 33 24 -3 17 -25
-5 -28 -3 -24 13 3 12 0 20 -7 20 -9 0 -10 16 -5 59 4 33 7 241 7 463 0 334
-2 417 -16 488 -29 152 -33 161 -98 226 -39 40 -58 66 -53 75 5 8 4 10 -4 5
-15 -10 -76 48 -66 63 3 6 -1 11 -12 11 -19 0 -153 137 -153 158 0 6 -7 12
-16 12 -8 0 -29 14 -46 30 -16 17 -33 30 -37 30 -4 0 -18 12 -32 26 -25 26
-164 135 -185 144 -24 11 -143 116 -143 127 -1 7 74 89 165 182 156 160 194
189 194 145 0 -8 4 -14 9 -14 13 0 25 39 22 68 -2 17 37 63 161 195 90 94 200
207 245 251 46 43 92 94 104 112 11 19 25 34 29 34 5 0 21 -19 34 -43z m-1439
-1943 c60 -73 253 -292 340 -386 55 -60 119 -133 143 -163 24 -30 47 -55 51
-55 9 0 23 253 20 385 -2 126 -8 133 -109 144 l-55 6 0 50 0 50 190 -2 c105
-1 198 -2 208 -3 14 0 17 -9 17 -49 l0 -49 -57 -4 c-89 -8 -93 -16 -94 -217
-1 -91 -3 -177 -5 -191 -7 -47 -13 -185 -15 -307 0 -72 -5 -123 -11 -123 -5 0
-6 5 -3 10 3 6 1 10 -5 10 -6 0 -13 -7 -16 -15 -13 -33 -20 -26 -233 203 -18
21 -82 89 -141 152 -59 63 -142 156 -185 205 -43 50 -82 94 -86 99 -11 12 -11
-525 -1 -541 11 -17 97 -42 121 -36 15 4 19 -2 23 -29 3 -18 3 -38 1 -45 -5
-13 -317 -19 -379 -7 -33 6 -35 8 -32 43 l3 36 67 5 c37 3 72 10 78 16 13 13
14 631 1 666 -12 32 -64 68 -98 68 -15 0 -33 4 -39 8 -16 10 -25 90 -10 95 6
2 74 2 151 0 134 -4 141 -6 160 -29z m2278 8 c9 -47 -2 -72 -32 -72 -48 0 -50
-8 -31 -105 20 -103 33 -154 66 -280 14 -49 27 -103 30 -120 3 -16 11 -39 16
-49 10 -18 11 -17 23 10 6 16 22 58 34 94 12 36 29 77 37 92 8 15 28 69 45
120 29 87 30 96 19 148 -15 69 -23 79 -71 86 -38 6 -39 7 -39 50 0 56 1 56
206 52 l159 -3 3 -47 c3 -48 3 -48 -28 -48 -17 0 -39 -4 -49 -10 -20 -10 -18
-27 19 -180 63 -255 91 -360 99 -360 8 0 64 163 95 275 36 132 59 256 49 265
-4 5 -24 10 -43 12 -32 3 -35 6 -41 41 -4 24 -2 41 6 47 8 7 72 9 166 8 l154
-3 -4 -45 c-1 -25 -5 -47 -7 -49 -2 -2 -20 -7 -41 -10 -28 -5 -41 -14 -56 -41
-19 -34 -58 -130 -80 -200 -6 -19 -16 -38 -21 -42 -5 -3 -10 -15 -11 -25 -1
-10 -15 -61 -32 -113 -18 -52 -57 -175 -89 -273 l-57 -178 -31 3 c-17 2 -31 8
-31 13 -1 6 -9 25 -19 44 -10 19 -26 66 -36 105 -10 39 -28 105 -40 146 -32
108 -58 201 -65 233 -3 15 -9 27 -13 27 -5 0 -25 -46 -46 -102 -20 -57 -41
-112 -45 -123 -5 -11 -13 -32 -20 -47 -6 -16 -15 -28 -21 -28 -7 0 -9 -8 -5
-19 3 -11 0 -23 -7 -27 -6 -4 -14 -2 -16 4 -4 13 -42 37 -42 27 0 -3 12 -17
26 -30 l26 -24 -32 -85 c-36 -96 -47 -109 -87 -104 -23 2 -29 10 -41 48 -7 25
-17 65 -21 90 -5 25 -22 92 -39 150 -17 58 -59 205 -93 326 -33 122 -64 226
-68 232 -3 5 -19 11 -36 13 -44 5 -55 17 -55 60 0 46 -9 44 201 47 l156 3 6
-29z m-4108 -392 c-4 -6 -9 -23 -11 -38 -3 -15 -17 -42 -31 -61 -20 -25 -22
-33 -10 -28 9 3 17 2 17 -3 0 -6 -4 -10 -10 -10 -5 0 -10 -8 -11 -17 0 -16 -2
-15 -10 2 -8 18 -9 18 -8 -5 2 -43 0 -47 -31 -60 -30 -12 -44 -37 -14 -26 8 3
23 -1 32 -10 15 -15 14 -16 -7 -9 -19 6 -23 4 -18 -8 3 -9 -5 -26 -20 -41 -16
-17 -21 -26 -12 -26 8 0 -1 -14 -19 -31 -18 -16 -38 -26 -44 -23 -8 5 -3 11
13 18 13 5 25 11 27 12 1 1 4 11 7 23 5 28 -20 87 -41 95 -14 5 -14 9 -3 23
12 15 12 16 -3 10 -13 -5 -19 0 -24 17 -3 13 -15 27 -27 30 -20 5 -20 6 -3 25
10 11 23 18 27 15 5 -3 9 0 9 7 0 10 3 10 12 1 8 -8 8 -15 0 -25 -9 -10 -4
-13 24 -14 34 -1 35 0 29 25 -3 14 -14 32 -23 40 -13 10 -14 15 -4 18 6 3 12
12 12 20 0 16 26 19 35 4 4 -6 -1 -7 -12 -3 -16 6 -16 5 -4 -10 15 -19 31 -14
31 9 0 12 4 12 20 4 16 -9 24 -7 37 5 14 14 14 18 2 26 -10 7 -6 8 12 4 17 -4
30 -1 38 9 15 18 26 22 16 6z m-450 -561 c7 -21 26 -21 33 1 3 8 0 10 -9 5 -8
-5 -11 -4 -6 1 10 10 57 13 57 4 0 -4 -9 -15 -20 -25 -21 -19 -27 -45 -9 -45
5 0 7 -4 4 -10 -3 -6 1 -7 9 -4 9 3 16 15 16 25 0 10 5 19 11 19 6 0 9 -7 5
-15 -4 -12 -2 -13 14 -3 11 7 16 17 11 23 -14 17 -9 44 7 38 10 -4 11 -8 2
-13 -8 -5 -8 -10 -2 -14 5 -3 10 -17 10 -32 0 -14 -3 -22 -7 -17 -3 6 -18 3
-34 -7 -20 -12 -24 -19 -15 -23 7 -3 1 -6 -13 -6 -14 -1 -34 -10 -44 -21 -10
-11 -21 -17 -25 -15 -4 3 -11 -2 -14 -11 -3 -8 -2 -12 4 -9 6 3 10 -1 10 -9 0
-20 -5 -20 -25 1 -14 14 -18 14 -26 2 -5 -8 -9 -17 -9 -20 0 -8 41 -22 59 -19
7 1 11 -2 9 -7 -3 -4 -8 -17 -13 -28 l-7 -20 -8 20 c-7 17 -9 15 -9 -12 -1
-17 5 -34 12 -36 9 -4 9 -7 0 -14 -14 -10 -15 -83 -1 -83 4 0 8 -5 8 -11 0 -5
-4 -8 -9 -4 -5 3 -12 1 -16 -5 -3 -5 -1 -10 4 -10 21 0 11 -19 -30 -57 -23
-21 -49 -46 -58 -55 -8 -10 -25 -18 -37 -18 -17 0 -21 -5 -17 -20 6 -23 -6
-26 -32 -6 -15 11 -17 17 -7 28 6 8 10 17 7 20 -9 9 24 75 40 81 8 4 15 11 15
18 0 6 -6 9 -14 6 -13 -5 -13 -1 0 35 8 22 27 67 43 98 17 32 29 67 28 77 -1
25 43 143 54 143 5 0 9 -5 9 -11 0 -5 4 -8 9 -5 5 3 11 -1 15 -9 3 -8 1 -17
-4 -20 -14 -9 -12 -25 2 -22 20 3 38 31 26 38 -6 4 -10 18 -10 33 0 29 -2 30
-29 16 -20 -11 -28 3 -9 15 6 3 10 15 10 26 0 25 17 24 25 -2z m329 -19 c-5
-24 -3 -30 11 -30 17 0 17 -1 1 -19 -10 -11 -28 -21 -39 -23 -12 -2 -27 -13
-33 -25 -6 -13 -14 -20 -18 -15 -5 4 -6 -2 -4 -12 1 -10 -3 -21 -11 -24 -8 -3
-11 0 -7 7 10 15 -5 13 -27 -3 -18 -14 -18 -15 0 -24 17 -10 16 -12 -6 -36
-14 -14 -27 -23 -30 -20 -6 5 -7 10 -10 35 -1 7 -17 10 -41 7 -22 -2 -40 0
-40 4 0 5 -7 8 -15 8 -8 0 -15 7 -15 15 0 8 -6 15 -12 16 -7 0 3 7 22 14 19 7
29 14 22 14 -7 1 -11 5 -7 10 3 6 18 6 38 0 41 -12 43 -11 29 3 -7 7 -12 17
-12 24 0 17 43 26 53 11 5 -7 6 -4 3 8 -5 16 -1 21 14 22 14 1 20 -4 18 -14
-2 -9 3 -18 10 -20 6 -3 12 2 12 10 0 16 20 27 50 27 20 0 34 26 23 42 -3 7
-1 8 5 4 7 -4 12 -2 12 3 0 6 2 11 5 11 2 0 2 -13 -1 -30z"/>
<path d="M4432 4510 c-7 -11 -17 -18 -22 -15 -6 3 -10 0 -10 -8 0 -7 -41 -52
-91 -98 -51 -46 -125 -119 -167 -161 -41 -43 -81 -78 -88 -78 -8 0 -14 -7 -14
-15 0 -8 -3 -15 -8 -15 -11 0 -29 -32 -36 -67 -7 -29 -1 -38 73 -119 44 -48
77 -93 74 -99 -4 -5 -2 -7 2 -2 13 12 84 -63 78 -82 -4 -12 -3 -13 4 -3 7 10
35 -14 110 -94 98 -104 101 -107 151 -112 78 -7 98 2 136 61 31 48 106 129
106 115 0 -14 123 114 199 206 100 121 102 136 31 196 -27 23 -50 48 -50 55 0
8 -9 16 -20 20 -24 8 -175 145 -225 205 -20 25 -42 47 -49 49 -6 2 -28 19 -49
37 -20 19 -43 34 -51 34 -7 0 -26 3 -42 6 -22 4 -32 0 -42 -16z"/>
</g>
</svg>
